<svg width="25" height="24" viewBox="0 0 25 24" fill="none" xmlns="http://www.w3.org/2000/svg">
<path d="M4.33325 19V17H6.33325V10C6.33325 8.61667 6.74992 7.39167 7.58325 6.325C8.41659 5.24167 9.49992 4.53333 10.8333 4.2V3.5C10.8333 3.08333 10.9749 2.73333 11.2583 2.45C11.5583 2.15 11.9166 2 12.3333 2C12.7499 2 13.0999 2.15 13.3833 2.45C13.6833 2.73333 13.8333 3.08333 13.8333 3.5V4.2C15.1666 4.53333 16.2499 5.24167 17.0833 6.325C17.9166 7.39167 18.3333 8.61667 18.3333 10V17H20.3333V19H4.33325ZM12.3333 22C11.7833 22 11.3083 21.8083 10.9083 21.425C10.5249 21.025 10.3333 20.55 10.3333 20H14.3333C14.3333 20.55 14.1333 21.025 13.7333 21.425C13.3499 21.8083 12.8833 22 12.3333 22ZM8.33325 17H16.3333V10C16.3333 8.9 15.9416 7.95833 15.1583 7.175C14.3749 6.39167 13.4333 6 12.3333 6C11.2333 6 10.2916 6.39167 9.50825 7.175C8.72492 7.95833 8.33325 8.9 8.33325 10V17Z" fill="#49454F"/>
</svg>
