<svg width="25" height="24" viewBox="0 0 25 24" fill="none" xmlns="http://www.w3.org/2000/svg">
<path d="M12.6667 22C12.4334 22 12.2334 21.9333 12.0667 21.8C11.9 21.6667 11.775 21.4917 11.6917 21.275C11.375 20.3417 10.975 19.4667 10.4917 18.65C10.025 17.8333 9.36669 16.875 8.51669 15.775C7.66669 14.675 6.97502 13.625 6.44169 12.625C5.92502 11.625 5.66669 10.4167 5.66669 9C5.66669 7.05 6.34169 5.4 7.69169 4.05C9.05835 2.68333 10.7167 2 12.6667 2C14.6167 2 16.2667 2.68333 17.6167 4.05C18.9834 5.4 19.6667 7.05 19.6667 9C19.6667 10.5167 19.375 11.7833 18.7917 12.8C18.225 13.8 17.5667 14.7917 16.8167 15.775C15.9167 16.975 15.2334 17.975 14.7667 18.775C14.3167 19.5583 13.9417 20.3917 13.6417 21.275C13.5584 21.5083 13.425 21.6917 13.2417 21.825C13.075 21.9417 12.8834 22 12.6667 22ZM12.6667 11.5C13.3667 11.5 13.9584 11.2583 14.4417 10.775C14.925 10.2917 15.1667 9.7 15.1667 9C15.1667 8.3 14.925 7.70833 14.4417 7.225C13.9584 6.74167 13.3667 6.5 12.6667 6.5C11.9667 6.5 11.375 6.74167 10.8917 7.225C10.4084 7.70833 10.1667 8.3 10.1667 9C10.1667 9.7 10.4084 10.2917 10.8917 10.775C11.375 11.2583 11.9667 11.5 12.6667 11.5Z" fill="#1D192B"/>
</svg>
